<svg viewBox="0 0 110 110" fill="none" xmlns="http://www.w3.org/2000/svg">
<path fill-rule="evenodd" clip-rule="evenodd" d="M34.1387 24.3255C31.6354 24.3255 29.1255 24.7562 27.5576 26.0617C26.4877 26.9566 25.7878 28.4236 25.7878 30.7249V47.5545C25.7878 49.8895 24.4353 52.561 21.6158 54.5259C24.4353 56.4908 25.7878 59.1622 25.7878 61.4972V78.3268C25.7878 80.6281 26.4877 82.1018 27.5576 82.9968C29.1255 84.3022 31.6354 84.7329 34.1387 84.7329V91.2938C30.3367 91.2938 26.3396 90.4796 23.3855 88.0235C20.8688 85.9307 19.2337 82.8286 19.2337 78.3335V61.504C19.2337 61.0195 18.628 60.286 17.3697 59.5727C15.9229 58.7518 13.7965 58.1798 10.8828 58.1798V50.8787C13.7898 50.8787 15.9229 50.3067 17.3697 49.4857C18.6348 48.7725 19.2337 48.039 19.2337 47.5545V30.7249C19.2337 26.2299 20.8756 23.1278 23.3855 21.035C26.3396 18.5721 30.3367 17.7646 34.1387 17.7646V24.3188V24.3255Z" fill="currentColor"/>
<path fill-rule="evenodd" clip-rule="evenodd" d="M74.9316 91.2938C78.7336 91.2938 82.7307 90.4796 85.6848 88.0235C88.2015 85.9307 89.8367 82.8286 89.8367 78.3335V61.504C89.8367 61.0195 90.4423 60.286 91.7006 59.5727C93.1474 58.7518 95.2738 58.1798 98.1875 58.1798V50.8787C95.2805 50.8787 93.1474 50.3067 91.7006 49.4857C90.4355 48.7725 89.8367 48.039 89.8367 47.5545V30.7249C89.8367 26.2299 88.1947 23.1278 85.6848 21.035C82.7307 18.5721 78.7336 17.7646 74.9316 17.7646V24.3188C77.4349 24.3188 79.9448 24.7495 81.5127 26.0549C82.5827 26.9499 83.2825 28.4169 83.2825 30.7182V47.5478C83.2825 49.8828 84.635 52.5542 87.4545 54.5191C84.635 56.484 83.2825 59.1555 83.2825 61.4905V78.3201C83.2825 80.6214 82.5827 82.0951 81.5127 82.9901C79.9448 84.2955 77.4349 84.7262 74.9316 84.7262V91.2871V91.2938Z" fill="currentColor"/>
<path fill-rule="evenodd" clip-rule="evenodd" d="M54.542 24.542C54.542 24.542 44.8521 33.7273 42.4632 46.0617C41.8038 49.4532 41.6625 53.2686 41.7971 57.0235L41.7836 56.9966L32.8877 71.3565H43.3717L43.4322 71.3094C43.9907 74.4048 44.4752 76.3899 44.4752 76.3899L49.5086 81.5511H59.5754L64.6088 76.3899C64.6088 76.3899 65.0933 74.4116 65.6518 71.3162L65.6989 71.3565H76.1829L67.287 56.9966C67.4216 53.2552 67.2803 49.4465 66.6208 46.0617C64.232 33.7273 54.542 24.542 54.542 24.542ZM54.542 45.5571C57.8056 45.5571 60.4569 48.2083 60.4569 51.472C60.4569 54.7356 57.8056 57.3869 54.542 57.3869C51.2784 57.3869 48.6271 54.7356 48.6271 51.472C48.6271 48.2083 51.2784 45.5571 54.542 45.5571Z" fill="currentColor"/>
</svg>
