<svg width="861" height="176" viewBox="0 0 861 176" fill="none" xmlns="http://www.w3.org/2000/svg">
<g clip-path="url(#clip0_315_1105)">
<path d="M728.636 43.2714H744.803C745.032 46.4671 744.769 49.6663 744.974 53.2519C745.39 52.7018 745.568 52.5069 745.701 52.2806C748.775 47.0972 753.38 44.0442 758.992 42.3767C765.847 40.3438 772.771 40.0061 779.698 41.7884C787.479 43.7936 793.956 47.7795 798.007 55.1491C798.164 55.4345 798.372 55.6887 798.649 56.0925C799.411 54.9611 800.046 53.955 800.743 52.9908C805.525 46.3766 811.981 42.704 819.837 41.3672C823.595 40.7092 827.415 40.4977 831.221 40.7371C838.466 41.228 845.202 43.2157 850.821 48.1694C855.453 52.2528 858.213 57.4884 859.736 63.4621C860.73 67.3644 860.986 71.3503 860.99 75.3572C861.008 94.1971 861.008 113.038 860.99 131.881C860.99 132.445 860.932 133.008 860.898 133.677H844.625C844.594 132.925 844.536 132.194 844.533 131.463C844.533 113.783 844.533 96.1013 844.533 78.4171C844.533 74.6435 844.362 70.8839 843.323 67.2287C842.254 63.4621 840.475 60.1654 837.264 57.8296C835.136 56.2805 832.714 55.4728 830.18 55.0203C825.682 54.1583 821.041 54.5308 816.732 56.0994C809.514 58.766 805.535 64.2906 803.776 71.695C803.035 74.828 802.949 78.0063 802.946 81.195C802.946 97.9463 802.946 114.7 802.946 131.456V133.458C801.58 133.861 789.925 133.99 786.595 133.659C786.561 133.036 786.489 132.375 786.489 131.713C786.489 123.308 786.489 114.902 786.489 106.496V78.4902C786.489 74.6609 786.325 70.8317 785.256 67.1277C784.187 63.4238 782.431 60.1898 779.278 57.8713C777.106 56.27 774.629 55.4345 772.044 54.9959C767.599 54.1633 763.017 54.533 758.756 56.0681C751.535 58.7103 747.525 64.2175 745.746 71.6184C744.994 74.7514 744.905 77.9262 744.902 81.115C744.902 97.9266 744.902 114.738 744.902 131.55V133.684H728.728C728.366 132.392 728.264 45.5237 728.636 43.2714Z" fill="#3C3C43"/>
<path d="M322.131 165V43.508C323.432 43.1599 335.483 43.0311 338.428 43.3548C338.585 45.1894 338.482 47.0831 338.499 48.9664C338.516 50.8497 338.499 52.7331 338.499 54.867C338.721 54.7329 338.928 54.5754 339.118 54.397C343.582 47.8873 349.679 43.7865 357.201 41.938C366.194 39.7205 375.075 40.1243 383.615 43.8352C392.977 47.9012 399.6 54.9018 403.839 64.2765C406.459 70.0727 407.836 76.196 408.396 82.5352C409.205 91.6627 408.334 100.599 405.236 109.225C401.192 120.501 393.899 128.768 382.945 133.471C379.624 134.843 376.123 135.706 372.554 136.033C367.649 136.566 362.785 136.43 357.986 135.289C350.219 133.44 343.824 129.426 339.21 122.701C339.141 122.599 339.051 122.515 338.946 122.454C338.84 122.394 338.722 122.359 338.602 122.353C338.571 122.941 338.516 123.529 338.516 124.114C338.516 137.043 338.516 149.971 338.516 162.898V165.024L322.131 165ZM392.256 89.0101C392.239 84.1644 391.761 79.7468 390.579 75.4336C389.213 70.3825 387 65.7491 383.276 62.0869C375.649 54.5746 366.539 52.9176 356.633 55.9427C349.344 58.1636 344.494 63.3958 341.317 70.3233C339.268 74.7827 338.284 79.5066 337.874 84.3906C337.304 91.1789 338.011 97.8035 340.299 104.212C342.079 109.201 344.835 113.538 348.955 116.877C354.762 121.573 361.381 123.094 368.643 122.137C378.283 120.866 384.885 115.453 388.858 106.59C391.392 100.902 392.154 94.8271 392.256 89.0101Z" fill="#3C3C43"/>
<path d="M575.166 136.315C566.743 136.364 558.986 134.467 551.82 130.276C544.959 126.285 539.373 120.362 535.732 113.218C531.503 105.103 529.71 96.4214 529.897 87.2625C530.092 77.7276 532.449 68.8367 537.48 60.757C543.075 51.7791 550.966 45.8786 560.916 42.7281C566.811 40.8622 572.854 40.347 578.951 40.7822C588.881 41.4784 597.772 44.9804 605.3 51.7234C610.082 55.9983 613.59 61.2374 616.145 67.1449C619.588 75.1028 620.825 83.4715 620.302 92.0908C619.691 102.155 616.637 111.39 610.601 119.467C606.126 125.449 600.141 130.08 593.284 132.866C587.535 135.251 581.372 136.425 575.166 136.315ZM603.982 87.2311C603.845 85.9222 603.691 83.3148 603.275 80.7492C602.281 74.6468 600.095 69.0352 596.173 64.2347C588.71 55.0897 577.045 52.6598 566.579 55.8277C557.818 58.4803 552.182 64.6942 549.029 73.2334C545.272 83.3845 545.333 93.6469 549.029 103.822C550.945 109.082 554.009 113.57 558.463 116.974C564.998 121.956 572.42 123.289 580.293 121.959C589.571 120.393 596.064 114.882 600.142 106.384C602.851 100.769 603.903 94.7609 603.982 87.2485V87.2311Z" fill="#3C3C43"/>
<path d="M220 88.3727C219.969 80.9822 221.277 73.9642 224.164 67.3013C229.544 54.8667 238.551 46.5467 251.374 42.6339C257.72 40.6879 264.193 40.3294 270.772 40.9803C277.011 41.578 283.053 43.528 288.493 46.6999C295.444 50.7345 300.742 56.4471 304.523 63.5974C309.763 73.5221 311.293 84.1362 310.077 95.2445C309.219 103.703 306.182 111.781 301.274 118.659C296.646 125.148 290.61 129.823 283.349 132.89C276.264 135.88 268.855 136.782 261.29 136.228C251.493 135.507 242.704 132.068 235.238 125.437C229.714 120.528 225.861 114.44 223.283 107.512C220.999 101.404 219.885 94.9076 220 88.3727ZM293.999 88.1778C294.042 82.9684 293.106 77.7988 291.242 72.9477C288.831 66.7234 285.043 61.6305 279.287 58.2573C272.534 54.3027 265.283 53.6448 257.853 55.5107C249.717 57.5541 243.91 62.734 240.382 70.3543C235.207 81.5148 235.108 92.9818 239.381 104.445C241.21 109.489 244.447 113.878 248.692 117.071C255.203 121.973 262.574 123.285 270.382 121.976C279.584 120.434 286.095 115.014 290.17 106.583C292.926 100.877 294.06 94.7571 294.006 88.1778H293.999Z" fill="#3C3C43"/>
<path d="M716.855 85.4908C716.855 99.5964 713.989 109.859 707.462 118.91C702.871 125.273 696.894 129.851 689.741 132.869C682.66 135.863 675.255 136.726 667.686 136.222C660.851 135.802 654.206 133.767 648.277 130.276C641.476 126.294 635.928 120.421 632.281 113.343C627.093 103.46 625.559 92.9021 626.748 81.8599C627.594 73.3447 630.65 65.2127 635.601 58.2995C640.243 51.8211 646.272 47.1598 653.551 44.1034C660.584 41.1549 667.932 40.2393 675.443 40.7789C684.863 41.4542 693.399 44.643 700.736 50.8359C706.885 56.0333 711.103 62.6196 713.826 70.219C715.933 76.0917 716.886 82.1872 716.855 85.4908ZM642.822 88.5124C642.749 93.7968 643.677 99.046 645.555 103.972C647.574 109.194 650.593 113.702 655.061 117.075C661.551 121.984 668.943 123.289 676.748 121.977C685.97 120.431 692.46 115.014 696.528 106.573C699.083 101.306 700.217 95.6662 700.361 89.7865C700.521 83.0122 699.445 76.5059 696.518 70.3965C693.41 63.8937 688.662 59.0723 681.974 56.4441C677.383 54.6373 672.615 54.2266 667.723 54.8427C659.119 55.9289 652.643 60.3464 648.127 67.7682C644.281 74.1039 642.833 81.1324 642.822 88.5124Z" fill="#3C3C43"/>
<path d="M414.5 108.592H430.977C431.165 109.716 431.295 110.795 431.531 111.857C431.886 113.624 432.617 115.289 433.673 116.737C434.729 118.184 436.084 119.377 437.641 120.233C440.514 121.876 443.643 122.669 446.864 123.087C451.496 123.689 456.191 123.585 460.793 122.781C464.786 122.084 468.472 120.692 471.321 117.559C476.284 112.097 474.737 103.199 468.195 99.92C464.892 98.263 461.33 97.5493 457.733 96.968C451.851 96.0176 445.911 95.3841 440.128 93.835C435.039 92.4808 430.14 90.681 425.891 87.4053C419.651 82.5908 416.351 76.2656 416.156 68.2207C416.013 62.247 417.581 56.8826 421.342 52.2666C424.573 48.298 428.651 45.534 433.379 43.7273C438.54 41.75 443.916 40.9424 449.385 40.6917C453.709 40.4968 458.044 40.5629 462.31 41.3671C471.297 43.0624 479.283 46.6271 484.663 54.6163C487.041 58.1643 488.428 62.3052 488.673 66.595H472.711C472.646 66.2225 472.571 65.843 472.506 65.4566C471.768 60.9973 469.206 57.9339 465.371 55.8695C462.776 54.5284 459.937 53.7508 457.033 53.5859C452.548 53.2378 448.049 53.2378 443.612 54.1951C440.813 54.7757 438.204 56.0677 436.026 57.9513C430.793 62.4768 431.066 72.5442 438.236 75.7051C441.679 77.2171 445.286 78.3063 448.982 78.9496C454.905 79.9939 460.858 80.9199 466.744 82.1035C471.211 83.0016 475.526 84.4707 479.437 86.9562C486.145 91.2171 489.728 97.3997 490.309 105.406C490.613 109.601 490.367 113.761 488.868 117.726C486.74 123.376 482.849 127.473 477.855 130.575C473.213 133.443 468.086 134.839 462.754 135.644C458.416 136.268 454.031 136.477 449.655 136.27C442.608 135.988 435.77 134.686 429.41 131.428C424.368 128.845 420.211 125.245 417.454 120.142C415.559 116.595 414.545 112.63 414.5 108.592Z" fill="#3C3C43"/>
<path d="M502.004 12H518.195V133.684H502.004V12Z" fill="#3C3C43"/>
</g>
<path d="M0 87.975C61.6975 73.462 73.462 61.6975 87.975 0C102.488 61.6975 114.252 73.462 175.95 87.975C114.252 102.488 102.488 114.252 87.975 175.95C73.462 114.252 61.6975 102.488 0 87.975Z" fill="#3C3C43"/>
<defs>
<clipPath id="clip0_315_1105">
<rect width="641" height="153" fill="white" transform="translate(220 12)"/>
</clipPath>
</defs>
</svg>
