<svg viewBox="0 0 80 31" fill="none" xmlns="http://www.w3.org/2000/svg">
<path d="M12.6 16.096C13.016 16.096 13.368 16.24 13.656 16.528C13.96 16.816 14.112 17.168 14.112 17.584V19C10.784 19 9.064 19 8.952 19C7.352 18.888 5.92 18.44 4.656 17.656C3.408 16.856 2.456 15.856 1.8 14.656C1.144 13.456 0.816 12.168 0.816 10.792V2.584H2.352C2.768 2.584 3.12 2.736 3.408 3.04C3.712 3.328 3.864 3.672 3.864 4.072V10.792C3.864 12.28 4.392 13.536 5.448 14.56C6.52 15.584 7.824 16.096 9.36 16.096H12.6ZM19.3414 5.488C19.0534 5.488 18.8054 5.392 18.5974 5.2C18.4054 5.008 18.3094 4.768 18.3094 4.48V2.584H34.3414V4C34.3414 4.416 34.1894 4.768 33.8854 5.056C33.5814 5.344 33.2214 5.488 32.8054 5.488H19.3414ZM33.0454 16.096C33.4614 16.096 33.8134 16.24 34.1014 16.528C34.4054 16.816 34.5574 17.168 34.5574 17.584V19H18.3094V17.08C18.3094 16.808 18.4054 16.576 18.5974 16.384C18.7894 16.192 19.0214 16.096 19.2934 16.096H33.0454ZM28.4374 10.744C28.4374 11.16 28.2854 11.52 27.9814 11.824C27.6934 12.112 27.3334 12.256 26.9014 12.256H18.3094V10.336C18.3094 10.064 18.4054 9.832 18.5974 9.64C18.7894 9.432 19.0294 9.328 19.3174 9.328H28.4374V10.744ZM50.7296 2.584C51.0336 3.16 51.8416 4.688 53.1536 7.168C54.4816 9.632 55.8256 12.144 57.1856 14.704C58.5456 17.248 59.3056 18.68 59.4656 19H56.9456C56.3536 19 55.9216 18.744 55.6496 18.232L49.2656 6.28C44.4496 14.408 42.0416 18.472 42.0416 18.472C41.8496 18.824 41.5456 19 41.1296 19H38.3456C42.3296 12.168 45.2816 7.088 47.2016 3.76C47.4096 3.392 47.6896 3.104 48.0416 2.896C48.3936 2.688 48.7776 2.584 49.1936 2.584H50.7296ZM64.6294 10.744C64.6294 11.16 64.4774 11.52 64.1734 11.824C63.8854 12.112 63.5334 12.256 63.1174 12.256H61.5814V2.584H64.1734C64.5574 2.584 64.8614 2.736 65.0854 3.04L74.0374 14.56V4.096C74.0374 3.68 74.1894 3.328 74.4934 3.04C74.7974 2.736 75.1574 2.584 75.5734 2.584H77.1094V19H74.4934C74.1254 19 73.8214 18.856 73.5814 18.568L64.6294 7.048V10.744Z" fill="currentColor"/>
<path d="M2.378 29V24.536H3.404V29H2.378ZM5.66511 29V24.536H6.70911L7.88511 26.474C8.14911 26.924 8.49711 27.65 8.49711 27.65H8.50911C8.50911 27.65 8.45511 26.852 8.45511 26.342V24.536H9.43311V29H8.38311L7.21911 27.086C6.94911 26.636 6.60111 25.892 6.60111 25.892H6.58911C6.58911 25.892 6.64311 26.696 6.64311 27.206V29H5.66511ZM11.6827 29V24.536H12.7267L13.9027 26.474C14.1667 26.924 14.5147 27.65 14.5147 27.65H14.5267C14.5267 27.65 14.4727 26.852 14.4727 26.342V24.536H15.4507V29H14.4007L13.2367 27.086C12.9667 26.636 12.6187 25.892 12.6187 25.892H12.6067C12.6067 25.892 12.6607 26.696 12.6607 27.206V29H11.6827ZM19.7223 29.108C18.3663 29.108 17.5143 28.118 17.5143 26.786C17.5143 25.448 18.3663 24.458 19.7223 24.458C21.0723 24.458 21.9243 25.448 21.9243 26.786C21.9243 28.118 21.0723 29.108 19.7223 29.108ZM19.7283 28.268C20.4963 28.268 20.8803 27.626 20.8803 26.786C20.8803 25.94 20.4963 25.286 19.7283 25.286C18.9543 25.286 18.5583 25.94 18.5583 26.786C18.5583 27.626 18.9543 28.268 19.7283 28.268ZM24.9343 29L23.4583 24.536H24.5203L25.1803 26.684C25.3303 27.176 25.4863 27.998 25.4863 27.998H25.4983C25.4983 27.998 25.6543 27.176 25.7983 26.684L26.4523 24.536H27.4843L26.0083 29H24.9343ZM30.4444 26.582L30.1684 27.416H31.3144L31.0444 26.582C30.8524 25.97 30.7564 25.394 30.7564 25.394H30.7444C30.7444 25.394 30.5884 26.144 30.4444 26.582ZM31.8304 29L31.5544 28.148H29.9344L29.6524 29H28.6264L30.2344 24.536H31.2964L32.9104 29H31.8304ZM37.7913 25.406H36.4593V29H35.4333V25.406H34.1073V24.536H37.7913V25.406ZM39.8311 29V24.536H40.8571V29H39.8311ZM45.1402 29.108C43.7842 29.108 42.9322 28.118 42.9322 26.786C42.9322 25.448 43.7842 24.458 45.1402 24.458C46.4902 24.458 47.3422 25.448 47.3422 26.786C47.3422 28.118 46.4902 29.108 45.1402 29.108ZM45.1462 28.268C45.9142 28.268 46.2982 27.626 46.2982 26.786C46.2982 25.94 45.9142 25.286 45.1462 25.286C44.3722 25.286 43.9762 25.94 43.9762 26.786C43.9762 27.626 44.3722 28.268 45.1462 28.268ZM49.4112 29V24.536H50.4552L51.6312 26.474C51.8952 26.924 52.2432 27.65 52.2432 27.65H52.2552C52.2552 27.65 52.2012 26.852 52.2012 26.342V24.536H53.1792V29H52.1292L50.9652 27.086C50.6952 26.636 50.3472 25.892 50.3472 25.892H50.3352C50.3352 25.892 50.3892 26.696 50.3892 27.206V29H49.4112ZM58.376 29V24.536H59.396V28.124H61.454V29H58.376ZM65.0557 26.582L64.7797 27.416H65.9257L65.6557 26.582C65.4637 25.97 65.3677 25.394 65.3677 25.394H65.3557C65.3557 25.394 65.1997 26.144 65.0557 26.582ZM66.4417 29L66.1657 28.148H64.5457L64.2637 29H63.2377L64.8457 24.536H65.9077L67.5217 29H66.4417ZM69.4737 29V24.536H71.5857C72.0477 24.536 72.4017 24.644 72.6297 24.842C72.8757 25.058 73.0077 25.34 73.0077 25.694C73.0077 26.138 72.7677 26.438 72.2877 26.588V26.612C72.8637 26.75 73.1817 27.152 73.1817 27.698C73.1817 28.124 73.0257 28.448 72.7437 28.67C72.4797 28.886 72.1137 29 71.6397 29H69.4737ZM70.4877 26.33H71.4417C71.7897 26.33 72.0237 26.162 72.0237 25.832C72.0237 25.508 71.8017 25.328 71.4537 25.328H70.4877V26.33ZM70.4877 28.196H71.5317C71.7357 28.196 71.8977 28.136 72.0057 28.034C72.1077 27.938 72.1677 27.794 72.1677 27.626C72.1677 27.236 71.8857 27.044 71.5137 27.044H70.4877V28.196ZM77.0441 29.108C75.8501 29.108 75.0941 28.556 75.0641 27.59H76.0961C76.1501 28.076 76.4681 28.292 77.0441 28.292C77.4401 28.292 77.8121 28.136 77.8121 27.77C77.8121 27.38 77.4341 27.296 76.7861 27.146C75.9161 26.948 75.2081 26.732 75.2081 25.802C75.2081 24.878 75.9641 24.458 76.9481 24.458C77.9321 24.458 78.6281 24.914 78.6941 25.79H77.6921C77.6381 25.442 77.3621 25.238 76.9181 25.238C76.4981 25.238 76.2161 25.418 76.2161 25.7C76.2161 26.048 76.6001 26.126 77.3021 26.282C78.1061 26.462 78.8441 26.726 78.8441 27.668C78.8441 28.592 78.0641 29.108 77.0441 29.108Z" fill="currentColor"/>
</svg>
