<svg viewBox="0 0 64 64" fill="none"
    xmlns="http://www.w3.org/2000/svg">
    <g clip-path="url(#clip0_25_68)">
        <path d="M48 0H16C7.16344 0 0 7.16344 0 16V48C0 56.8366 7.16344 64 16 64H48C56.8366 64 64 56.8366 64 48V16C64 7.16344 56.8366 0 48 0Z" fill="inherit"/>
        <path d="M17 17H29.3529V29.3529H17V17ZM34.6471 17H47V29.3529H34.6471V17ZM17 34.6471H29.3529V47H17V34.6471ZM39.9412 34.6471H41.7059V39.9412H47V41.7059H41.7059V47H39.9412V41.7059H34.6471V39.9412H39.9412V34.6471ZM36.4118 18.7647V27.5882H45.2353V18.7647H36.4118ZM18.7647 18.7647V27.5882H27.5882V18.7647H18.7647ZM18.7647 36.4118V45.2353H27.5882V36.4118H18.7647Z" fill="currentColor"/>
    </g>
    <defs>
        <clipPath id="clip0_25_68">
            <rect width="64" height="64" fill="white"/>
        </clipPath>
    </defs>
</svg>
