<svg viewBox="0 0 64 64" fill="none"
    xmlns="http://www.w3.org/2000/svg">
    <g clip-path="url(#clip0_25_68)">
        <path d="M48 0H16C7.16344 0 0 7.16344 0 16V48C0 56.8366 7.16344 64 16 64H48C56.8366 64 64 56.8366 64 48V16C64 7.16344 56.8366 0 48 0Z" fill="inherit"/>
        <path d="M22.5271 45C21.8929 45 21.2656 44.8889 20.6451 44.6666C20.0249 44.4446 19.4765 44.1366 19 43.7427C19.5323 43.3864 19.9851 42.9081 20.3583 42.3077C20.7316 41.7073 20.9182 40.9703 20.9182 40.0967C20.9182 39.1746 21.2277 38.3992 21.8466 37.7705C22.4655 37.142 23.2286 36.8278 24.136 36.8278C25.0437 36.8278 25.807 37.142 26.4259 37.7705C27.0445 38.3992 27.3538 39.1746 27.3538 40.0967C27.3538 41.4451 26.8812 42.5994 25.936 43.5596C24.9908 44.5199 23.8545 45 22.5271 45ZM22.5271 43.3656C23.412 43.3656 24.1696 43.0455 24.7997 42.4053C25.4299 41.7652 25.7449 40.9956 25.7449 40.0967C25.7449 39.6336 25.5908 39.2454 25.2824 38.9321C24.974 38.6189 24.5919 38.4622 24.136 38.4622C23.6802 38.4622 23.2981 38.6189 22.9897 38.9321C22.6813 39.2454 22.5271 39.6336 22.5271 40.0967C22.5271 40.7232 22.4534 41.2953 22.3059 41.8128C22.1584 42.3304 21.964 42.8207 21.7227 43.2838C21.8567 43.3383 21.9908 43.3656 22.1249 43.3656H22.5271ZM30.3553 36.639L27.6016 33.8417L40.7637 20.4707C41.0587 20.1711 41.4274 20.0144 41.8698 20.0008C42.3123 19.9872 42.6944 20.1438 43.0162 20.4707L43.5173 20.9798C43.8391 21.3067 44 21.6881 44 22.124C44 22.5598 43.8391 22.9412 43.5173 23.2681L30.3553 36.639Z" fill="currentColor"/>
    </g>
    <defs>
        <clipPath id="clip0_25_68">
            <rect width="64" height="64" fill="white"/>
        </clipPath>
    </defs>
</svg>
