<svg viewBox="0 0 64 64" fill="none"
    xmlns="http://www.w3.org/2000/svg">
    <g clip-path="url(#clip0_25_68)">
        <path d="M48 0H16C7.16344 0 0 7.16344 0 16V48C0 56.8366 7.16344 64 16 64H48C56.8366 64 64 56.8366 64 48V16C64 7.16344 56.8366 0 48 0Z" fill="inherit"/>
        <path d="M36.718 47V44.9286H40.7104C41.5827 44.9286 42.3213 44.6305 42.9263 44.0342C43.531 43.438 43.8333 42.727 43.8333 41.9012V37.5191C43.8333 36.3667 44.1838 35.3482 44.8847 34.4637C45.5857 33.5796 46.4871 32.9794 47.5888 32.6631V32.3369C46.4871 32.0206 45.5857 31.4204 44.8847 30.5363C44.1838 29.6518 43.8333 28.6333 43.8333 27.4809V23.0988C43.8333 22.273 43.531 21.562 42.9263 20.9658C42.3213 20.3695 41.5827 20.0714 40.7104 20.0714H36.718V18H40.7104C42.1599 18 43.3854 18.498 44.3868 19.494C45.3882 20.4897 45.8889 21.6913 45.8889 23.0988V27.4809C45.8889 28.3599 46.2044 29.0975 46.8355 29.6937C47.4669 30.29 48.2319 30.5881 49.1305 30.5881H50V34.4119H49.1305C48.2319 34.4119 47.4669 34.71 46.8355 35.3063C46.2044 35.9025 45.8889 36.6401 45.8889 37.5191V41.9012C45.8889 43.3087 45.3882 44.5103 44.3868 45.506C43.3854 46.502 42.1599 47 40.7104 47H36.718ZM22.2896 47C20.8664 47 19.6477 46.502 18.6332 45.506C17.6185 44.5103 17.1111 43.3087 17.1111 41.9012V37.5191C17.1111 36.6401 16.7956 35.9025 16.1645 35.3063C15.5331 34.71 14.7681 34.4119 13.8695 34.4119H13V30.5881H13.8695C14.7681 30.5881 15.5331 30.29 16.1645 29.6937C16.7956 29.0975 17.1111 28.3599 17.1111 27.4809V23.0988C17.1111 21.6913 17.6185 20.4897 18.6332 19.494C19.6477 18.498 20.8664 18 22.2896 18H26.3215V20.0714H22.2896C21.4437 20.0714 20.7118 20.3695 20.0937 20.9658C19.4757 21.562 19.1667 22.273 19.1667 23.0988V27.4809C19.1667 28.6333 18.8227 29.6518 18.1348 30.5363C17.4472 31.4204 16.5393 32.0206 15.4112 32.3369V32.6631C16.5393 32.9794 17.4472 33.5796 18.1348 34.4637C18.8227 35.3482 19.1667 36.3667 19.1667 37.5191V41.9012C19.1667 42.727 19.4757 43.438 20.0937 44.0342C20.7118 44.6305 21.4437 44.9286 22.2896 44.9286H26.3215V47H22.2896Z" fill="currentColor"/>
    </g>
    <defs>
        <clipPath id="clip0_25_68">
            <rect width="64" height="64" fill="white"/>
        </clipPath>
    </defs>
</svg>