<svg viewBox="0 0 64 64" fill="none"
    xmlns="http://www.w3.org/2000/svg">
    <g clip-path="url(#clip0_25_68)">
        <path d="M48 0H16C7.16344 0 0 7.16344 0 16V48C0 56.8366 7.16344 64 16 64H48C56.8366 64 64 56.8366 64 48V16C64 7.16344 56.8366 0 48 0Z" fill="inherit"/>
        <path d="M31.5 51L14 37.1239L15.9053 35.5875L31.5 47.8989L47.0947 35.5875L49 37.1239L31.5 51ZM31.5 41.7523L14 27.8761L31.5 14L49 27.8761L31.5 41.7523ZM31.5 38.6511L45.1261 27.8761L31.5 17.1011L17.8739 27.8761L31.5 38.6511Z" fill="currentColor"/>
    </g>
    <defs>
        <clipPath id="clip0_25_68">
            <rect width="64" height="64" fill="white"/>
        </clipPath>
    </defs>
</svg>
