<svg viewBox="0 0 64 64" fill="none"
    xmlns="http://www.w3.org/2000/svg">
    <g clip-path="url(#clip0_25_68)">
        <path d="M48 0H16C7.16344 0 0 7.16344 0 16V48C0 56.8366 7.16344 64 16 64H48C56.8366 64 64 56.8366 64 48V16C64 7.16344 56.8366 0 48 0Z" fill="inherit"/>
        <path d="M25.4232 47C24.7327 47 24.1563 46.7688 23.6938 46.3063C23.2313 45.8438 23 45.2673 23 44.5768V19.4232C23 18.7327 23.2313 18.1563 23.6938 17.6938C24.1563 17.2313 24.7327 17 25.4232 17H38.5768C39.2673 17 39.8438 17.2313 40.3063 17.6938C40.7688 18.1563 41 18.7327 41 19.4232V44.5768C41 45.2673 40.7688 45.8438 40.3063 46.3063C39.8438 46.7688 39.2673 47 38.5768 47H25.4232ZM24.5 43.25V44.5768C24.5 44.8078 24.5961 45.0194 24.7884 45.2116C24.9806 45.4039 25.1922 45.5 25.4232 45.5H38.5768C38.8078 45.5 39.0194 45.4039 39.2116 45.2116C39.4039 45.0194 39.5 44.8078 39.5 44.5768V43.25H24.5ZM24.5 41.75H39.5V22.25H24.5V41.75ZM24.5 20.75H39.5V19.4232C39.5 19.1922 39.4039 18.9806 39.2116 18.7884C39.0194 18.5961 38.8078 18.5 38.5768 18.5H25.4232C25.1922 18.5 24.9806 18.5961 24.7884 18.7884C24.5961 18.9806 24.5 19.1922 24.5 19.4232V20.75Z" fill="currentColor"/>
    </g>
    <defs>
        <clipPath id="clip0_25_68">
            <rect width="64" height="64" fill="white"/>
        </clipPath>
    </defs>
</svg>
